<?xml version="1.0" encoding="utf-8"?>
<!-- Generator: Adobe Illustrator 25.0.1, SVG Export Plug-In . SVG Version: 6.00 Build 0)  -->
<svg version="1.1" id="Capa_1" xmlns="http://www.w3.org/2000/svg" xmlns:xlink="http://www.w3.org/1999/xlink" width="192" height="130"
	 viewBox="0 0 107.7600021 107.8799973" style="enable-background:new 0 0 107.7600021 107.8799973;" xml:space="preserve">
<style type="text/css">
	.st0{fill:#D6B861;}
</style>
<g>
	<g>
		<path class="st0" d="M102.4734573,95.7577209c-2.7620087,0.0059814-4.9900055,2.2489929-4.9900055,5
			c0.0039978,2.7619934,2.2360077,5.0009766,4.9990082,4.993988c2.7479858-0.0039978,4.9789886-2.2390137,4.9779968-4.9970093
			C107.4604568,97.995697,105.2214584,95.7577209,102.4734573,95.7577209 M102.48246,105.2796936
			c-2.5020142,0-4.5210114-2.0189819-4.5220032-4.5219727c0-2.5,2.0139923-4.526001,4.5159912-4.526001
			c2.4900055,0,4.5140076,2.0189819,4.5160065,4.5229797C106.9924545,103.2546997,104.9734573,105.2767029,102.48246,105.2796936"/>
		<path class="st0" d="M104.8914413,103.1156006c-0.1999969-0.1199951-0.4420013-0.375-0.7189941-0.7680054l-1.2190094-1.6960144
			c0.4970093-0.1139832,0.8640137-0.302002,1.0990143-0.5669861c0.2379913-0.2659912,0.3619995-0.5800171,0.3579865-0.9460144
			c0-0.3389893-0.1079865-0.6289978-0.3190002-0.8769836c-0.2039948-0.2460022-0.4589996-0.4120178-0.7549896-0.5029907
			c-0.3000031-0.0960083-0.7600098-0.1390076-1.3820038-0.1390076l-2.1499939,0.0039978v0.1629944l0.2229919-0.0039978
			c0.2200012,0,0.3899994,0.0570068,0.5070038,0.1910095c0.076004,0.0849915,0.1199951,0.3190002,0.121994,0.6949768
			l0.0039978,3.8100281c0,0.3399963-0.0309906,0.5559998-0.095993,0.6409912
			c-0.1040039,0.1629944-0.2830048,0.2519836-0.5330048,0.2519836h-0.2220001v0.1549988h2.5310059v-0.1549988h-0.2360077
			c-0.2159882,0-0.3839874-0.0669861-0.4949951-0.1949768c-0.0800018-0.0920105-0.121994-0.3300171-0.121994-0.697998v-1.7140198
			c0.0439911,0.0029907,0.0879974,0.0029907,0.1380005,0.007019h0.1199951c0.0950012,0,0.2109985-0.0040283,0.3589935-0.007019
			l1.9940033,2.7590027h1.576004v-0.1560059C105.3524399,103.3285828,105.0914383,103.2475891,104.8914413,103.1156006
			 M101.7314529,100.4915771h-0.1030121c-0.0390015-0.0029907-0.0879974-0.0029907-0.1409912-0.0029907l-0.0039978-2.4580078
			c0.2869873-0.0529785,0.5159912-0.0809937,0.6839905-0.0809937c0.3800049,0,0.6849976,0.1159973,0.9150085,0.3510132
			c0.2259979,0.2259827,0.3479919,0.5270081,0.3479919,0.894989c0,0.375-0.1419983,0.6880188-0.4290009,0.928009
			C102.7114487,100.371582,102.2934494,100.4915771,101.7314529,100.4915771"/>
		<path class="st0" d="M76.3477554,31.440794c0.2289886-2.5209961,3.8159943-2.6519775,2.7429962-5.269989
			c-1.1950073-0.2290039-2.1580048-0.8379822-3.1269989-1.196991c-0.4660034-0.3529968-1.0709991-0.4769897-1.7850037-0.3500061
			c-3.1009979,1.5540161-4.1660004,4.17099-5.4940033,6.927002c-0.1199951,0.4779949-0.348999,0.8389874-0.6060028,1.1939983
			c-0.0169983,0.0599976-0.0369873,0.1270142-0.0829926,0.1870117c-0.1860046,0.4219971-0.2890015,0.821991-0.5,1.1339722
			c-0.1459961,0.382019-0.378006,0.6900024-0.5859985,0.9910278c-0.5039978,0.6059875-1.0469971,1.1519775-1.1950073,2.117981
			c0.2750092,0.6520081,0.6040039,1.0050049,1.1990051,1.2010193c0.1699982,0.0349731,0.3560028,0.0779724,0.5879974,0.1199951
			c0.1820068,0.1869812,0.3730011,0.2259827,0.496994,0.2259827h0.0850067c0.253006,0,0.3849945-0.2259827,0.6080017-0.3529968
			c0.2330017-0.1279907,0.4889984-0.2309875,0.7189941-0.1279907c2.3880005-2.2669983,4.2969971-4.1790161,6.5599976-6.4420147
			C76.0987473,31.670805,76.2257462,31.5468121,76.3477554,31.440794"/>
		<path class="st0" d="M27.5137539,74.0228882c-0.8430023,0.5920105-0.6090012,1.4320068,0.0019989,2.1430054
			c1.7839966,0.8430176,2.9779968,3.4420166,5.7230015,2.1390076c2.3929977-2.3729858,4.6549911-5.0180054,6.5649948-7.769989
			c0.3350067-0.4210205,0.6289978-0.8780212,0.901001-1.3460083c0.3329926-0.5450134,0.6309967-1.1080017,0.9019928-1.6319885
			c-0.2549896-0.3150024-0.5690002-0.5880127-0.9039917-0.8220215c-0.2960052-0.2089844-0.6060028-0.3719788-0.9000092-0.5029907
			C34.7857513,63.8449059,31.9207516,72.3449097,27.5137539,74.0228882"/>
		<path class="st0" d="M60.2471542,18.0863934c-6.1070099,1.9550171-2.7830048,9.1900024-3.7260132,13.953001l-0.4830017,0.4820251
			c0.25,0.84198-0.3559875,1.9089966,0.4870148,2.3939819c1.5099945,0.8110046,2.7879944-0.7579956,3.7309875-1.5979919
			c0.0410004-0.0419922,0.0630035-0.0629883,0.0850067-0.0849915c1.0659943-4.5360088,2.3639984-9.3170147,3.0699921-13.7470074
			c0.1260071-2.0329895-2.1179962-0.8359985-3.0809937-1.4230042
			C60.3081436,18.0624065,60.2841415,18.0624065,60.2471542,18.0863934"/>
		<path class="st0" d="M81.2549515,53.1751671c-1.3210144-0.2299805-3.3420105-0.2269897-4.8910065-0.8139954h-0.3789978
			c-1.2940063-0.1239929-2.4970093,0.0020142-2.9759979,1.302002c0,1.6790161,0.9629974,2.15802,1.5549927,3.4640198
			c0.4790039,0.243988,0.9589996,0.4779968,1.423996,0.7259827c3.0019989,1.2010193,6.3410034,2.1390076,9.5770111,3.1060181
			c0.9609985-0.0039978,2.7480011,0.2229919,3.3529968-1.1010132c0.8339996-1.7820129-0.6069946-2.9750061-0.9700012-4.4029846
			C85.8039474,54.4881859,83.5199509,53.9071922,81.2549515,53.1751671"/>
		<path class="st0" d="M35.7334518,42.2142906c-1.6790009-1.9119873-3.8390064-2.5-5.9830036-3.6899719
			c-2.6210022-1.0910034-5.3759995-4.1930237-8.1220016-2.03302c-2.3889999,8.7330017,8.7109985,5.7270203,12.7880039,10.1499939
			c0.9659958,0.230011,1.7999954,1.1930237,2.6240005,0.230011C37.3944473,44.8563194,36.5744476,43.8893089,35.7334518,42.2142906"
			/>
		<path class="st0" d="M39.7744522,27.9808941c0.2949982,0.4850159,0.5889893,0.9460144,0.9039917,1.4060059
			c1.7640076,2.6029968,3.8659973,5.0960064,5.7960052,7.3210125c0.7969971,0.2299805,2.0379944,0.4570007,2.6609955-0.1279907
			c0.0249939-0.0420227,0.0639954-0.0640259,0.0870056-0.1100159c0.9609985-1.6539917,0.647995-3.0629883-0.0870056-4.3420105
			c-0.9250031-1.596983-2.477005-2.9999981-3.0240021-4.3799725c-2.1470032-2.1610107-1.9179993-6.2050171-5.2559967-6.9200134
			c-0.0579987,0.0209961-0.121994,0.0350037-0.1820068,0.0559998c-0.2969971,0.131012-0.595993,0.3439941-0.9049988,0.5280151
			c-0.9420013,0.7149963-1.5509949,1.9129944-1.7789917,3.0039978
			C38.4704514,25.5899029,39.0584488,26.7879009,39.7744522,27.9808941"/>
		<path class="st0" d="M35.2656555,60.509182c1.0669937-0.4849854,0.8409958-1.5549927,0.2249985-2.3939819
			c-5.0150013-1.9049988-11.2250004-2.1570129-16.0050068,0.2449951c-0.0429993,0.2050171-0.0820007,0.3959961-0.0820007,0.6090088
			v0.3569946c0.0600052,1.2109985,0.6940002,2.4760132,1.6360016,3.230011
			C26.4136486,63.4902,30.3556499,60.8702049,35.2656555,60.509182"/>
		<path class="st0" d="M68.1035538,67.6663818c0.1289978,0.4530029,0.3859863,0.8360291,0.6109924,1.1890259
			c1.5549927,2.1399841,5.0200043,3.690979,7.2859955,5.723999c0.4840088,0.3540039,0.9710083,0.8389893,1.3220062,1.3199768
			c1.4279938,0.8400269,3.0070038-0.4839783,4.1809998-1.5609741c0.4750061-1.1870117,0.1230011-2.5110168-0.4720001-3.4530029
			c-1.548996-1.5750122-3.2299957-2.5180054-5.0339966-3.3540039c-2.3730011-1.196991-4.8890076-2.2619934-7.1590118-3.9450111
			l-0.1299896,0.1279907c-0.2190094,0.4640236-0.4790039,0.9450111-0.6049957,1.4270058
			c-0.0180054,0.1490173-0.0590057,0.2730103-0.0830078,0.4210205c-0.1260071,0.6519775-0.1260071,1.2369995,0.0019989,1.7639771
			C68.044548,67.4504089,68.0895462,67.5574036,68.1035538,67.6663818"/>
		<path class="st0" d="M76.3555527,41.8206749c-0.1240082,0.0040283-0.2480011,0.0040283-0.3790131,0.0040283
			c-1.1899872,0.3569946-2.3659973,1.196991-3.2050018,2.3929749c0.8390045,1.1950073,2.0190125,1.1950073,3.2100067,1.552002
			v-0.1059875c3.7100067-0.9670105,7.5270081-2.3940125,11.477005-3.0069885
			c0.8379974-0.8390198,2.0279999-1.6790161,1.677002-2.6240234c-0.4860077-1.9089966-1.6850128-3.4599915-3.3440094-4.1959839
			c-2.3889923,0.8379822-3.5789948,2.7510071-6.1019897,3.2359924
			C78.8515396,40.3937035,76.5865402,40.3937035,76.3555527,41.8206749"/>
		<path class="st0" d="M66.5664597,79.5794983c-2.1210022-2.8079834-1.227005-8.9379883-6.2820129-9.3959961
			c-0.04599,0-0.1089935-0.0169983-0.1490021-0.0169983c-4.4249878,1.6759949-0.1209869,5.7440186-0.2459869,8.1170044
			c0.1490021,0.3120117,0.2949982,0.6270142,0.4019928,0.9670105c0.8390045,2.3269958,1.048996,5.0539856,2.7089996,7.026001
			c1.9550018,0.5879822,2.8760071-0.5880127,3.9450073-1.8269958c0.2109985-0.2799988,0.4609985-0.5460205,0.7139893-0.8010254
			c0.2900085-1.0939941-0.1529999-2.3439941-0.7159882-3.42099C66.8184586,79.9975281,66.6874466,79.792511,66.5664597,79.5794983"
			/>
		<path class="st0" d="M49.1602554,71.7640991c-1.4660034,0.6090088-1.8400116,1.7880249-2.6610107,3.0700073
			c-0.5879974,0.7340088-0.3529968,2.0299988-1.0630035,2.6199951l-0.2309875,1.552002
			c-1.8050079,1.9120178-1.8010101,3.9460144-2.6440125,6.5720215c0.8240051,2.5579834,5.1679993,2.0509949,6.6119995-0.105011
			c0.230011-0.3649902,0.4020081-0.7579956,0.4410095-1.2009888c1.5699921-3.5870056,2.5110016-7.7630005,2.7590027-11.7080078
			c-0.8379974-0.7189941-2.2860107-0.7149963-3.1260071-0.8349915
			C49.2292404,71.743103,49.1852493,71.7640991,49.1602554,71.7640991"/>
		<path class="st0" d="M10.249053,64.4857788c-0.4780045-0.3889771-0.9800034-0.6019936-1.5-0.633976
			c-0.5210037-0.0280151-1.2040029,0.0820007-2.0540013,0.3329811l-3.4380033,1.0130005
			c-0.4720001,0.1419983-0.7829971,0.1880188-0.939003,0.1350098c-0.3309937-0.0920105-0.5479965-0.3120117-0.6459961-0.6409912
			l-0.0960007-0.3190002l-0.2279968,0.0749817l0.885994,2.9920044l0.2290039-0.0709839l-0.0920029-0.3150024
			c-0.0960007-0.3220215-0.0759964-0.5880127,0.0590057-0.8070068c0.0970001-0.1570129,0.4160004-0.3120117,0.9449997-0.4679871
			l3.4300001-1.0170288c0.9009933-0.2649841,1.5629964-0.375,1.9889989-0.321991
			c0.4229965,0.04599,0.8190002,0.2520142,1.1949997,0.6199951c0.3679962,0.3680115,0.6350021,0.8250122,0.802002,1.381012
			c0.1259995,0.4329834,0.1569977,0.8179932,0.0919952,1.1650085c-0.0660019,0.3439941-0.1999969,0.6340027-0.3860016,0.8609924
			c-0.1889954,0.230011-0.4889984,0.4389954-0.8959961,0.6229858c-0.4090042,0.184021-0.776001,0.3300171-1.1119995,0.4210205
			l-3.688004,1.0950012c-0.4749985,0.1380005-0.8040006,0.177002-0.9850004,0.1199951
			c-0.2630005-0.0880127-0.4499969-0.3009949-0.5499954-0.6549988l-0.0999985-0.3220215l-0.2310028,0.0670166l1.0829999,3.6690063
			l0.2320023-0.0700073l-0.0940018-0.322998c-0.0950012-0.321991-0.0820007-0.5809937,0.0369949-0.7680054
			c0.1220016-0.1919861,0.4430008-0.3609924,0.965004-0.5209961l3.3060002-0.9809875
			c1.0250015-0.2970276,1.6999969-0.5730286,2.0329971-0.8110046c0.4830017-0.3650208,0.8160019-0.8330078,0.9970016-1.4100037
			c0.1750031-0.5690002,0.1240005-1.3170166-0.1429977-2.2449951C11.098052,65.5028076,10.7320471,64.8858032,10.249053,64.4857788"
			/>
		<path class="st0" d="M1.3975513,60.9691734c0.0899963-0.1339722,0.2719955-0.3429871,0.5559998-0.6229858l6.1349945-0.3930054
			c0.4950027-0.0249939,0.8170013,0,0.9620056,0.0920105c0.2360001,0.1419983,0.362999,0.3970032,0.3889999,0.7789917
			l0.0189972,0.3009949L9.7025518,61.1152l-0.1970062-3.0750122l-0.2409973,0.0190125l0.0159988,0.3069763
			c0.0230026,0.3470154-0.0499954,0.6029968-0.2210007,0.78302c-0.1319962,0.1279907-0.4629974,0.2089844-1.0059967,0.2369995
			l-5.4319992,0.3479919l6.7369995-6.2730103l-0.0139999-0.2330017l-7.4329987,0.473999
			c-0.5010071,0.03302-0.8170013,0.0040283-0.9600068-0.0849915c-0.2399979-0.1369934-0.371994-0.3959961-0.3939972-0.7680054
			l-0.0199966-0.315979l-0.2380066,0.0220032l0.1930008,3.0669861l0.2430038-0.0140076l-0.0220032-0.3119812
			c-0.0239944-0.3399963,0.0530014-0.6020203,0.2249985-0.7790222c0.1310044-0.1239929,0.4590073-0.2049866,1.0010071-0.243988
			l5.0919952-0.322998l-6.276001,5.8190002l0.1549988,2.3899841l0.2390061-0.0099792
			c-0.0180054-0.2590027-0.0070038-0.4510193,0.0189972-0.5809937C1.2345493,61.3101768,1.3125446,61.1041832,1.3975513,60.9691734"
			/>
		<path class="st0" d="M0.8398501,49.9417686c0.0179977-0.2059937,0.0879974-0.3939819,0.2139969-0.5769958
			c0.0889969-0.1279907,0.1930008-0.2089844,0.3079987-0.2369995c0.151001-0.04599,0.4449997-0.04599,0.8919983,0
			l5.6809998,0.5840149c0.5280004,0.052002,0.8570027,0.1369934,0.9790044,0.2579956
			c0.1949997,0.1879883,0.2799988,0.4570007,0.2409973,0.8259888l-0.0339966,0.3110046l0.2409973,0.0240173l0.3860016-3.7709961
			l-0.2409973-0.0220032l-0.0330048,0.315979c-0.0179977,0.2050171-0.0919952,0.4040222-0.2159958,0.5740051
			c-0.0960007,0.131012-0.1930008,0.2160034-0.3050003,0.2399902c-0.1470032,0.0460205-0.4410019,0.0390015-0.8899994-0.0029907
			l-5.6850052-0.5809937c-0.5250015-0.053009-0.8509979-0.144989-0.9840012-0.2619934
			c-0.1949997-0.1880188-0.272995-0.460022-0.2319946-0.8179932l0.0299988-0.3190002l-0.241005-0.0240173l-0.3819962,3.7709961
			l0.2369995,0.0220032L0.8398501,49.9417686z"/>
		<path class="st0" d="M1.6807544,43.6839867c0.1089935-0.1309814,0.2479935-0.2299805,0.4109955-0.3049927
			c0.0960007-0.0429993,0.3619995-0.0910034,0.7819977-0.1519775l8.2360001-1.1800232l0.0580063-0.2259827l-6.438004-4.9760132
			c-0.3789978-0.2860107-0.637001-0.5660095-0.7819974-0.848999c-0.0960007-0.1879883-0.1279984-0.4509888-0.1030045-0.7619934
			l-0.2299957-0.0639954L2.891753,37.7980003l0.2340012,0.0639954c0.0179977-0.04599,0.034996-0.0849915,0.0469971-0.1029968
			c0.1259995-0.2799988,0.2630005-0.4609985,0.4039993-0.5490112c0.1460037-0.0949707,0.2789993-0.1209717,0.4020004-0.0879822
			c0.1880033,0.053009,0.4980009,0.2409973,0.9309995,0.5740051L9.296752,41.063015l-5.6009979,0.7969971
			c-0.4990005,0.0709839-0.8500061,0.0820007-1.0550003,0.0209961c-0.1580048-0.0419922-0.2630005-0.1340027-0.3280029-0.276001
			c-0.0660019-0.1459961-0.0589981-0.4210205,0.0080032-0.8280029l-0.2290039-0.0650024l-0.9599991,3.4890137l0.2360001,0.0669861
			C1.4567478,44.010006,1.5617511,43.8189964,1.6807544,43.6839867"/>
		<path class="st0" d="M14.0273504,29.0648785l-0.1200027,0.2270203c0.348999,0.5019836,0.5790024,0.9339905,0.7029953,1.2989807
			c0.0810013,0.2770081,0.1060028,0.5360107,0.0650024,0.7650146c-0.0439987,0.2340088-0.1819992,0.5700073-0.4089966,1.0129986
			l-0.6900024,1.3320007c-0.1110001,0.2189941-0.2109985,0.3569946-0.2959976,0.4070129
			c-0.0830002,0.0569763-0.1640015,0.0779724-0.2600021,0.0669861c-0.0930023-0.006012-0.310997-0.1019897-0.6610031-0.276001
			L9.7783499,32.556881l0.8909988-1.7239971c0.1679993-0.3269958,0.3289948-0.5529785,0.4939957-0.6659851
			c0.1570053-0.1210022,0.3219986-0.177002,0.4940033-0.177002c0.1360016,0.0029907,0.4049988,0.0740051,0.8150024,0.2160034
			l0.1149979-0.2160034l-2.7330017-1.4100037l-0.1119995,0.2130127c0.4339981,0.2539978,0.689003,0.5269775,0.7639999,0.8209839
			c0.0559998,0.2200012-0.0309982,0.553009-0.2610016,1.0020142L9.3513479,32.339901l-3.099999-1.6029949l1.112999-2.1570129
			c0.2039948-0.3859863,0.3740005-0.6409912,0.512001-0.7690125c0.1790013-0.1479797,0.3719945-0.2330017,0.5759969-0.2549744
			c0.2099991-0.0130005,0.5319977,0.0429993,0.9909973,0.1739807l0.1190033-0.2269897l-1.7640004-0.803009l-3.1279984,6.0450115
			l0.2089996,0.1130066l0.1480026-0.276001c0.1679993-0.3270264,0.362999-0.5140076,0.5899963-0.5780029
			c0.1679993-0.0429974,0.5009995,0.0679932,1,0.3299866l5.0970006,2.6340027
			c0.3830032,0.1960144,0.6210022,0.3510132,0.7210007,0.4609985c0.1039963,0.1059875,0.1459961,0.2340088,0.1459961,0.3930054
			c0.0070038,0.2129822-0.0389938,0.4110107-0.1349945,0.5950012l-0.1450043,0.2839966l0.2140045,0.105011l3.125-6.0450115
			L14.0273504,29.0648785z"/>
		<path class="st0" d="M9.9590521,23.6607952c0.2029953-0.2619934,0.4419937-0.401001,0.6899948-0.4139709
			c0.1860046-0.0040283,0.4970016,0.1589966,0.9230042,0.51297l4.4509954,3.5770264
			c0.3929977,0.3150024,0.6119995,0.552002,0.6610031,0.7009888c0.0899963,0.2829895,0.012001,0.5629883-0.2200012,0.8529968
			l-0.2050018,0.269989l0.1819992,0.1480103l2.3779984-2.9530029l-0.1869965-0.1520081l-0.2220001,0.2680054
			c-0.2020035,0.2630005-0.4349976,0.3900146-0.6829987,0.3980103c-0.1829987,0.0130005-0.4869995-0.1530151-0.9220047-0.5069885
			l-2.0029974-1.6080017c0.0460052-0.053009,0.090004-0.1029968,0.137001-0.1490173
			c0.038002-0.0489807,0.0820007-0.098999,0.1139984-0.1380005c0.0890045-0.1130066,0.1980057-0.2579956,0.3280029-0.4320068
			l5.0959997,0.256012l1.4799957-1.8389893l-0.1889954-0.1490173c-0.3460007,0.3439941-0.6839981,0.5710144-1.0220032,0.6880188
			c-0.3349991,0.1129761-0.8619995,0.1479797-1.5759964,0.1089783l-3.1200027-0.1659851
			c0.340004-0.6830139,0.4609985-1.2860107,0.3700027-1.8129883c-0.0849991-0.5320129-0.340004-0.960022-0.7710028-1.3040161
			c-0.3939972-0.3139954-0.8300018-0.4710083-1.3089981-0.4599915c-0.4840012,0.0180054-0.9140015,0.1479797-1.2979965,0.4109802
			c-0.3940048,0.2620239-0.875,0.7610168-1.4610062,1.4900208l-2.0179977,2.5079956l0.1849976,0.1529846L9.9590521,23.6607952z
			 M12.1670523,21.315794c0.3529968-0.4379883,0.7789993-0.6869812,1.260994-0.7399902
			c0.4830017-0.053009,0.9469986,0.0890198,1.3700027,0.4429932c0.4430008,0.3470154,0.6709976,0.8110046,0.6829987,1.3770142
			c0.0220032,0.553009-0.2399979,1.1659851-0.7639999,1.8240051c-0.0270004,0.0289917-0.0540009,0.0679932-0.0960007,0.1139832
			c-0.0390015,0.0450134-0.0909958,0.1020203-0.137001,0.1630249l-2.8659973-2.302002
			C11.8230505,21.8077984,12.0060492,21.5178204,12.1670523,21.315794"/>
		<path class="st0" d="M19.3135509,17.2757854c0.3259964,0.1240234,0.6899948,0.177002,1.0939941,0.1660156
			c0.4060059-0.0140076,1.038002-0.1029968,1.887001-0.269989c0.8519974-0.1660156,1.3820038-0.2539978,1.5960007-0.2680054
			c0.3160019-0.0180054,0.5930023,0.0209961,0.8290024,0.1130066c0.2319946,0.0959778,0.4209976,0.2159729,0.560997,0.3829956
			c0.2560043,0.3009949,0.3540039,0.6579895,0.2959976,1.0829773c-0.0509949,0.4250183-0.2879944,0.8120117-0.6999969,1.1620178
			c-0.3570023,0.3079834-0.7549973,0.5029907-1.1910019,0.598999c-0.4329987,0.0979919-0.8249969,0.0849915-1.173996-0.0320129
			c-0.3499985-0.117981-0.776001-0.3789978-1.2730026-0.789978l-0.1809998,0.1559753l1.9599991,2.3120117l0.1809998-0.1520081
			c-0.1069946-0.1809998-0.1589966-0.315979-0.151001-0.4029846c0.0050049-0.0930176,0.052002-0.1710205,0.1310043-0.2420044
			c0.0889969-0.0710144,0.3379974-0.1950073,0.7490005-0.3649902c0.4129944-0.1700134,0.6790009-0.2860107,0.7949982-0.3570251
			c0.197998-0.1169739,0.3919983-0.2589722,0.5859985-0.4249878c0.6269989-0.5270081,0.9800034-1.1480103,1.0579987-1.8559875
			c0.0830002-0.7090149-0.0909958-1.3140259-0.5299988-1.8240051c-0.2169952-0.2680063-0.5059967-0.4700022-0.836998-0.6120005
			c-0.3300018-0.1350098-0.6870041-0.197998-1.0719986-0.1880188c-0.3850021,0.0180054-1.0360031,0.1230164-1.951004,0.3190002
			c-1.1240005,0.2409983-1.897995,0.3260202-2.3119965,0.251008c-0.2820053-0.0459909-0.5159988-0.1730051-0.6880035-0.3789988
			c-0.2279968-0.2659912-0.3249969-0.6019897-0.2750015-1.006012c0.0470047-0.4029846,0.2440033-0.75,0.5880051-1.0409851
			c0.3030014-0.2579956,0.663002-0.428009,1.0849991-0.5169983c0.4120026-0.0880127,0.8119965-0.0599976,1.189003,0.0750122
			c0.3849945,0.1299744,0.7879944,0.3999939,1.2279968,0.7929993l0.189003-0.1600037l-1.9810028-2.3260193l-0.185997,0.1549988
			c0.1009979,0.1809998,0.147995,0.3270264,0.135994,0.4219971c-0.012001,0.098999-0.0599976,0.184021-0.151001,0.2550049
			c-0.0719986,0.0680237-0.2399979,0.1350098-0.4959946,0.2090149c-0.5490036,0.1699829-1.0040054,0.401001-1.362999,0.7009888
			c-0.5750046,0.4930115-0.8960037,1.0660095-0.9700012,1.7279968c-0.0740051,0.6700134,0.0960007,1.2470102,0.5029984,1.7260141
			C18.709547,16.9457989,18.9875469,17.1517925,19.3135509,17.2757854"/>
		<path class="st0" d="M24.1455517,9.7884798c0.1789932-0.1049805,0.3739929-0.1729736,0.5939941-0.1869812
			c0.1520004,0,0.2750015,0.0249939,0.3710022,0.0950012c0.1259995,0.09198,0.3079987,0.3259888,0.5459976,0.7009888
			l3.0470047,4.8340149c0.2819977,0.4509888,0.4160004,0.7619934,0.4000015,0.9319773
			c-0.026001,0.276001-0.1930008,0.507019-0.5010071,0.6970215l-0.2679977,0.1629944l0.1310043,0.2059937l3.2029953-2.0189829
			l-0.1299973-0.2010193l-0.2659988,0.1660156c-0.1790009,0.1099854-0.3730011,0.1739807-0.5880051,0.1869812
			c-0.1609955,0.0039978-0.2859955-0.0239868-0.3819962-0.0950012c-0.1210022-0.09198-0.3040009-0.322998-0.5439987-0.7049866
			l-3.0440063-4.8309937c-0.284996-0.4490051-0.4109955-0.7600098-0.3959961-0.934021
			c0.0299988-0.269989,0.1930008-0.4989929,0.4970016-0.690979l0.2689972-0.170013l-0.1299973-0.2019958l-3.1990051,2.019012
			l0.1259995,0.2019958L24.1455517,9.7884798z"/>
		<path class="st0" d="M29.3727474,6.534513c0.3030014-0.1239929,0.5720062-0.1390076,0.8059998-0.0280151
			c0.1640015,0.085022,0.3540039,0.382019,0.5630035,0.8880005l2.1989994,5.2700191
			c0.189003,0.4599915,0.2710037,0.7749939,0.2389984,0.9449768c-0.0529938,0.2810059-0.2529984,0.4930115-0.5929947,0.6340027
			l-0.3100052,0.1280212l0.0870056,0.2229919l3.6469955-1.5190125c1.5820007-0.6589966,2.5820007-1.571991,3.0039978-2.7479858
			c0.3730011-1.0450134,0.3220062-2.1400146-0.1490021-3.2760005c-0.3580017-0.8429871-0.8609924-1.5050049-1.5099945-1.9899902
			c-0.6589966-0.4860229-1.3610001-0.7369995-2.1119995-0.7480164c-0.7529984-0.0100098-1.737999,0.2380066-2.9509964,0.7449951
			l-3.3250065,1.3800049l0.0950012,0.2269897L29.3727474,6.534513z M32.721756,5.4154944
			c0.9589996-0.3999939,1.885994-0.4039917,2.7659988-0.0149841c0.885994,0.3970032,1.5649948,1.1549988,2.0319977,2.2850037
			c0.4660034,1.1189876,0.5279999,2.1350093,0.1839981,3.0419917c-0.3409958,0.9070129-0.9729996,1.5580139-1.9049988,1.9440002
			c-0.3440018,0.1409912-0.7969971,0.2650146-1.3509979,0.3609924l-2.8840046-6.9299922
			C31.9757519,5.7904944,32.3607559,5.5675025,32.721756,5.4154944"/>
		<path class="st0" d="M44.2579422,10.3914766l-0.0390015-0.2449951c-0.4309998,0.0390015-0.7099915,0.0249939-0.8560028-0.0559998
			c-0.1429901-0.0780029-0.2259979-0.1849976-0.2479858-0.3200073c-0.030014-0.1659851-0.0040131-0.4279785,0.0869904-0.7929993
			l0.3560028-1.4729915l3.3739929-0.5839844l0.7430115,1.1649776c0.2409973,0.3789978,0.3789978,0.6589966,0.4069977,0.848999
			c0.026001,0.1419983-0.0160065,0.2740173-0.1220093,0.3940125c-0.0999908,0.1170044-0.3239899,0.2160034-0.6689911,0.2900085
			l0.0419922,0.2369995l3.4360046-0.5899963l-0.0410004-0.2420044c-0.3600006,0.0429993-0.6539917-0.006012-0.8860016-0.1450195
			c-0.2249908-0.1340027-0.5130005-0.4779968-0.8589935-1.0199885l-4.276001-6.7250061L44.4789505,1.172483l-1.8310089,7.6920161
			c-0.1559906,0.6799927-0.326004,1.1409912-0.5099945,1.3779907c-0.0899963,0.1269836-0.3139954,0.2510071-0.6660004,0.3789978
			l0.0429993,0.230011L44.2579422,10.3914766z M44.5869522,3.2054725l2.0819855,3.2690125l-2.993988,0.5169983L44.5869522,3.2054725
			z"/>
		<path class="st0" d="M59.3653488,8.2698946c0.7899933-0.7859797,1.2179871-1.7959895,1.2869873-3.0209956
			c0.052002-0.9140015-0.1179962-1.7359924-0.4989929-2.4570007c-0.3829956-0.7200012-0.9140015-1.2510071-1.5780029-1.5870056
			c-0.6759949-0.3370057-1.6660004-0.5379944-2.9920044-0.6099854L51.9903488,0.400907l-0.0090027,0.2399902l0.3249969,0.0180054
			c0.3370056,0.0209961,0.5849915,0.1279907,0.7449951,0.3299866c0.1150055,0.1440125,0.1569977,0.4880067,0.1269989,1.0450134
			l-0.3099976,5.7049866c-0.026001,0.4950252-0.0869904,0.8210139-0.1920013,0.9560237
			c-0.1719971,0.2259827-0.4380035,0.3359985-0.8099976,0.3109741l-0.3379974-0.0169983l-0.0090027,0.2440186l3.9470062,0.2129822
			C57.1783371,9.5379,58.4793472,9.1479158,59.3653488,8.2698946 M54.0723495,8.7298861l0.4019928-7.5039973
			c0.5050049-0.1059875,0.9539948-0.1419983,1.345993-0.1210022c1.0410004,0.0540161,1.8710022,0.4500122,2.5020142,1.1940002
			c0.6269989,0.7400208,0.9029999,1.7140198,0.8409882,2.9360046c-0.0639954,1.2109985-0.447998,2.1490173-1.1499939,2.8260188
			c-0.7039948,0.6730042-1.5590057,0.9779968-2.5630035,0.9239807C55.0783463,8.9669161,54.6163406,8.8778963,54.0723495,8.7298861"
			/>
		<path class="st0" d="M72.8717422,12.1044893c0.9960022-0.5090027,1.7039948-1.3379822,2.1389923-2.4889832
			c0.3240051-0.8610229,0.4150085-1.6890254,0.2680054-2.493011c-0.1439972-0.8009949-0.4869995-1.4630127-1.0220032-1.9830017
			c-0.5469971-0.5279846-1.4290009-1.0209961-2.6629944-1.4920044l-3.3659973-1.2669983L68.1447372,2.606504l0.3090057,0.1199951
			c0.3099976,0.1139832,0.5159912,0.2909851,0.6080017,0.5319824c0.0630035,0.1740112,0,0.5170288-0.1959991,1.0310059
			L66.8467484,9.633481c-0.1720123,0.4700012-0.3330078,0.7510071-0.4790039,0.848999
			c-0.2259979,0.1630249-0.5160065,0.1880188-0.8650055,0.0610046l-0.3079987-0.1199951l-0.0890045,0.2220154l3.6970062,1.3989868
			C70.4077377,12.6505098,71.7657394,12.6715059,72.8717422,12.1044893 M70.3467484,3.9134803
			c0.5089874,0.0610046,0.947998,0.1560059,1.318985,0.2940063c0.9730072,0.3680115,1.6480103,0.9949951,2.0230103,1.8940125
			c0.3699951,0.8930054,0.3419952,1.9100032-0.0890045,3.0459895c-0.4279938,1.1409912-1.076004,1.9200134-1.951004,2.3479919
			c-0.8669891,0.4290161-1.776001,0.4680176-2.7269897,0.1040039c-0.3470001-0.1319885-0.756012-0.3519897-1.2320099-0.6600037
			L70.3467484,3.9134803z"/>
		<path class="st0" d="M74.5615616,14.1517916l-0.1290131,0.1980286l5.7330017,3.6839914l1.8450012-1.4519958l-0.2259979-0.1419983
			c-0.5299988,0.3049927-0.9850006,0.4920044-1.3529968,0.5769958c-0.2830048,0.0610046-0.5400085,0.053009-0.7700043-0.0039978
			c-0.227005-0.0630188-0.5509949-0.2290039-0.973999-0.4989929l-1.2630005-0.8140268
			c-0.2019958-0.1309814-0.3289948-0.2409973-0.371994-0.321991c-0.053009-0.0960083-0.0670013-0.1879883-0.0460052-0.2730103
			c0.0220032-0.0929871,0.1260071-0.302002,0.3379974-0.6309814l1.576004-2.45401l1.6380005,1.0450134
			c0.3119965,0.2049866,0.5159912,0.3899841,0.6230011,0.5559998c0.102005,0.1699829,0.1429901,0.3439941,0.1300049,0.5099792
			c-0.0160065,0.1380005-0.1170044,0.4000244-0.2940063,0.7960205l0.1999969,0.1279907l1.6620026-2.5849915l-0.1999969-0.131012
			c-0.2990112,0.4070129-0.5950012,0.6369934-0.8910065,0.6870117c-0.223999,0.0350037-0.5480042-0.085022-0.9729919-0.3540039
			l-1.6360016-1.052002l1.8880005-2.9400024l2.0410004,1.3039856c0.3669891,0.2369995,0.6089935,0.4360046,0.720993,0.5810242
			c0.1320038,0.1940002,0.197998,0.3970032,0.197998,0.5979919c0,0.2089844-0.0849915,0.5310059-0.2599945,0.973999
			l0.2140045,0.1419983l0.9599915-1.6900024l-5.7369995-3.6829829l-0.1289978,0.2089844l0.2680054,0.1669922
			c0.3029938,0.2019958,0.4729919,0.4110107,0.5159912,0.6410217c0.0240021,0.1689754-0.1169891,0.4919734-0.4160004,0.9660029
			l-3.1029968,4.8339844c-0.2330017,0.368988-0.4100037,0.5880127-0.5289917,0.6809998
			c-0.1130066,0.0849915-0.2460022,0.1239929-0.4070129,0.1130066c-0.2089996-0.0209961-0.4089966-0.0849915-0.5769958-0.197998
			L74.5615616,14.1517916z"/>
		<path class="st0" d="M88.9736557,26.1644878c0.6579895,0.2020264,1.4339905,0.2130127,2.3209991,0.0320129l-0.0340118-0.2409973
			c-0.901001,0.0849915-1.5849915,0.04599-2.0579987-0.1239929c-0.4720001-0.1660156-0.8990021-0.4710083-1.2799988-0.8959961
			c-0.4329987-0.5-0.7059937-1.0420227-0.8079987-1.632019c-0.102005-0.5950012-0.0200043-1.1829834,0.2510071-1.7609863
			c0.2739868-0.5800171,0.7089996-1.1369934,1.3079987-1.6600037c0.7319946-0.644989,1.4279938-1.0769958,2.0970001-1.2999878
			c0.67099-0.2240295,1.272995-0.2550049,1.8109894-0.1000061c0.5340118,0.1600037,0.9970093,0.4570007,1.3830109,0.9039917
			c0.4619904,0.5239868,0.7050018,1.1010132,0.7399902,1.7460022c0.029007,0.6340027-0.2019958,1.3450012-0.696991,2.144989
			l0.1309967,0.1499939l2.1259918-2.1319885l-0.1519928-0.1740112c-0.1909943,0.1060181-0.3609924,0.1480103-0.5279999,0.1460266
			c-0.1130066-0.0110168-0.2120056-0.0610046-0.2899933-0.1500244c-0.0559998-0.0629883-0.1040039-0.190979-0.1520081-0.3899841
			c-0.1719971-0.6750183-0.4729919-1.25-0.8930054-1.7310181c-0.5449982-0.6199951-1.1989899-1.0519714-1.9570007-1.3029785
			c-0.7659912-0.256012-1.5549927-0.2870178-2.371994-0.098999c-0.8110046,0.190979-1.5509949,0.5769958-2.2169952,1.1609802
			c-0.8200073,0.7220154-1.3359985,1.572998-1.548996,2.5570068c-0.2870026,1.3210144,0.048996,2.53302,1.0159912,3.6300049
			C87.7086411,25.5555096,88.3076553,25.9664898,88.9736557,26.1644878"/>
		<path class="st0" d="M94.9214401,35.5028954c0.0619965-0.2619934,0.2870026-0.6440125,0.6849976-1.1470032l4.95401-6.2329998
			l-0.1060028-0.1990051l-7.8670044,0.7799988c-0.6929932,0.0710144-1.1790009,0.0599976-1.4700012-0.0350037
			c-0.1419983-0.0429993-0.3339996-0.2129822-0.5670013-0.5029907l-0.2109985,0.1130066l1.3410034,2.4400024l0.2089996-0.1130066
			c-0.1799927-0.3900146-0.253006-0.6660156-0.223999-0.82901c0.0310059-0.1589966,0.1000061-0.276001,0.2169952-0.3399963
			c0.1470032-0.0780029,0.4080048-0.1390076,0.7810059-0.178009l1.5099945-0.1409912l1.6470032,2.9960003l-0.8549957,1.0769958
			c-0.272995,0.3510132-0.5,0.572998-0.6690063,0.6690063c-0.1230011,0.0670166-0.2619934,0.0710144-0.4079895,0.0110168
			c-0.1460114-0.0610046-0.3110046-0.2380066-0.4990082-0.5380249l-0.2070007,0.1130066l1.677002,3.053009l0.2089996-0.1140137
			C94.9124374,36.0588951,94.8624496,35.761898,94.9214401,35.5028954 M94.6924515,29.0648785l3.8669891-0.3829956
			l-2.4019928,3.0390015L94.6924515,29.0648785z"/>
		<path class="st0" d="M99.5723495,43.8323936l-0.0180054-0.2199707c-0.5879974-0.0630188-1.0410004-0.1590271-1.3450012-0.3010254
			c-0.3119965-0.1409912-0.552002-0.3289795-0.7259979-0.565979c-0.1760101-0.230011-0.3650055-0.6730042-0.5610046-1.3210144
			l-0.1840057-0.6159973c-0.1649933-0.5449829-0.2409973-0.8739929-0.2319946-0.9920044
			c0.0079956-0.1130066,0.0559998-0.2129822,0.1240082-0.2869873c0.1039886-0.1090088,0.3349915-0.2160034,0.6769867-0.3150024
			l5.3130035-1.6080017c0.5070038-0.1560059,0.8320007-0.2189941,0.9860077-0.1910095
			c0.1539917,0.0249939,0.3009949,0.1199951,0.4459991,0.2700195c0.1419983,0.1519775,0.2769928,0.4599915,0.4120026,0.9099731
			l0.2269897-0.071991l-1.1629944-3.8280029l-0.2299957,0.0679932l0.0950012,0.3180237
			c0.1019897,0.321991,0.0849915,0.59198-0.0490112,0.8049927c-0.098999,0.1589966-0.4129944,0.3179932-0.9400024,0.4769897
			l-5.4539948,1.6549988c-0.4869995,0.1410217-0.8040009,0.1900024-0.9649963,0.1440125
			c-0.2799988-0.0849915-0.4730072-0.3049927-0.5830078-0.6619873l-0.098999-0.3180237l-0.2229919,0.0670166l1.9779968,6.552002
			L99.5723495,43.8323936z"/>
		<path class="st0" d="M98.2213516,46.4429893c-0.2510071-0.1309814-0.3959961-0.3859863-0.4259949-0.7579956l-0.029007-0.32901
			l-0.2420044,0.0169983l0.3450012,3.9349976c0.1450043,1.7070007,0.7120056,2.9360046,1.6999969,3.6930237
			c0.8890076,0.677002,1.9420013,0.9559937,3.1700134,0.8540039c0.9109955-0.0810242,1.6959991-0.3610229,2.3600006-0.8359985
			c0.6599884-0.4780273,1.1089935-1.0730286,1.3470001-1.7850037c0.2409973-0.7149963,0.2979889-1.7250061,0.1879883-3.0420227
			l-0.3119965-3.5799866l-0.2380066,0.0209961l0.029007,0.3330078c0.0249939,0.32901-0.048996,0.5879822-0.220993,0.776001
			c-0.128006,0.1340027-0.4690094,0.2189941-1.0200043,0.2649841l-5.6790009,0.4990234
			C98.6963577,46.5490074,98.3693466,46.5279808,98.2213516,46.4429893 M105.8623581,47.1829796
			c0.1699982,0.4850159,0.269989,0.9240112,0.3009949,1.3170166c0.0910034,1.0369873-0.1900024,1.9119873-0.8320007,2.6350098
			c-0.6430054,0.7259827-1.5740051,1.1409912-2.7830048,1.242981c-1.2119904,0.1069946-2.1909943-0.1409912-2.9570007-0.743988
			c-0.7619934-0.605011-1.1909943-1.4020081-1.2740021-2.4079895c-0.0349884-0.3640137-0.0149994-0.8360291,0.0610046-1.3960266
			L105.8623581,47.1829796z"/>
		<path class="st0" d="M97.5057449,61.0753746l-0.4749908,3.4490089l0.2399902,0.0390015
			c0.0730133-0.3529968,0.2060089-0.6189919,0.4060059-0.7989845c0.2050018-0.178009,0.6170044-0.3480225,1.2350006-0.5110168
			l7.7039948-2.0429993l0.0310059-0.2269897l-6.7810059-4.0720215c-0.5939941-0.3580017-0.9779968-0.6589966-1.1559906-0.9069824
			c-0.0940094-0.1199951-0.1410065-0.3680115-0.1549988-0.7470093l-0.2390137-0.0319824l-0.3809967,2.7659912l0.2409973,0.0310059
			c0.0830078-0.4200134,0.1930084-0.6860046,0.3080139-0.7990112c0.118988-0.1140137,0.2429962-0.1570129,0.3779907-0.1419983
			c0.1690063,0.0239868,0.4140015,0.131012,0.7290039,0.321991l1.3069916,0.7929993l-0.4679871,3.3860168l-1.3370056,0.3540039
			c-0.4290009,0.1210022-0.7429962,0.1599731-0.9329987,0.1380005c-0.1419983-0.0240173-0.2539978-0.0950012-0.3350067-0.2369995
			c-0.0820007-0.1350098-0.1100006-0.3790283-0.0739899-0.7330017L97.5057449,61.0753746z M101.3437576,58.4583702
			l3.3289948,2.0080261l-3.7420044,0.9989929L101.3437576,58.4583702z"/>
		<path class="st0" d="M98.7832565,71.7991943c0.3239899-0.2049866,0.8299866-0.6269836,1.5239868-1.2539978
			c0.8410034-0.7789917,1.4680023-1.2349854,1.8650055-1.3849792c0.2709961-0.1020203,0.5279999-0.105011,0.7859955-0.0200195
			c0.3300018,0.1200256,0.576004,0.3600159,0.7440033,0.7250061c0.1569977,0.3720093,0.1699982,0.7690125,0.0160065,1.197998
			c-0.1330109,0.3789978-0.3540039,0.7080078-0.6710052,0.9949951c-0.3159943,0.2870178-0.6730042,0.4640198-1.0720062,0.5380249
			c-0.3909912,0.0739746-0.8779907,0.0569763-1.4549866-0.0640259l-0.0820007,0.2230225l2.8809967,1.0130005l0.0800018-0.2270203
			c-0.1760101-0.1089783-0.2850037-0.2119751-0.3220062-0.2969971c-0.0429993-0.09198-0.0429993-0.190979-0.0090027-0.2909851
			c0.0350037-0.0979919,0.1450043-0.2480164,0.3270111-0.4380188c0.3919983-0.4179993,0.6589966-0.8509827,0.8169861-1.2929993
			c0.2480011-0.7049866,0.2410126-1.3669739-0.0329895-1.9769897c-0.2720032-0.6080017-0.7060089-1.0230103-1.3040009-1.2349854
			c-0.3450012-0.1100159-0.6860046-0.1490173-1.029007-0.0960083c-0.3410034,0.0570068-0.6809998,0.1950073-1.022995,0.4109802
			c-0.3480072,0.2160034-0.8430023,0.6130066-1.4949951,1.1860046c-0.6430054,0.5700073-1.0630035,0.9179993-1.2369995,1.0339966
			c-0.2680054,0.1700134-0.5210114,0.276001-0.7710114,0.3190002c-0.2509918,0.0420227-0.4759979,0.0250244-0.6829987-0.0449829
			c-0.3710022-0.132019-0.6360016-0.3940125-0.8040009-0.7879944c-0.1679993-0.3880005-0.1559906-0.8380127,0.0189972-1.3520203
			c0.155014-0.4459839,0.3970032-0.8150024,0.7280121-1.1219788c0.3289948-0.302002,0.6699982-0.4830017,1.0289917-0.5640259
			c0.3619995-0.0709839,0.8610077-0.0599976,1.4960022,0.0430298l0.0780029-0.230011l-2.8580017-0.9989929l-0.0809937,0.2259827
			c0.1869965,0.0960083,0.2939911,0.1849976,0.3359985,0.2630005c0.0410004,0.0809937,0.04599,0.1730042,0.0069885,0.2730103
			c-0.0399933,0.1130066-0.1909943,0.3429871-0.4549866,0.6940002c-0.2750092,0.3569946-0.4430084,0.5879822-0.5040131,0.7189941
			c-0.1109924,0.197998-0.2129974,0.4179993-0.3019867,0.6579895c-0.2710114,0.7720032-0.2600098,1.480011,0.0249939,2.1289978
			c0.2879944,0.651001,0.7440033,1.0910034,1.3789978,1.3130188c0.3300018,0.1069946,0.677002,0.1419983,1.0319977,0.1029968
			C98.121254,72.1392212,98.4592514,72.0042114,98.7832565,71.7991943"/>
		<path class="st0" d="M18.2080517,85.965271l0.1509933,0.1350098c0.1560059,0.131012,0.2320023,0.2789917,0.239006,0.4349976
			c0,0.1100159-0.1150055,0.2940063-0.3339996,0.5450134l-2.2880011,2.6309814
			c-0.2050018,0.2340088-0.3530045,0.3650208-0.451004,0.3900146c-0.1699982,0.0499878-0.3439941-0.0069885-0.5139999-0.1530151
			l-0.1529999-0.1329956l-0.0970001,0.1090088l3.1529989,2.7479858l1.3090057-0.7999878l-0.0810013-0.1099854
			c-0.3270035,0.1629944-0.590004,0.2590027-0.7949982,0.2829895c-0.2070007,0.0279846-0.3860016,0.0079956-0.5580063-0.0589905
			c-0.1650009-0.0610046-0.4059982-0.2310181-0.7210007-0.4970093l-0.2939987-0.2650146
			c-0.2630005-0.2269897-0.4089966-0.3719788-0.4430008-0.4359741c-0.0329971-0.0630188-0.0459976-0.1280212-0.0309982-0.1910095
			c0.0220032-0.0889893,0.1070023-0.2160034,0.2509995-0.3789978l2.2310028-2.5639954
			c0.2129974-0.2450256,0.3580017-0.382019,0.4469986-0.4179993c0.0889969-0.0360107,0.1959991-0.0360107,0.3160019,0
			c0.1240005,0.0319824,0.2910004,0.1419983,0.5089951,0.3359985l0.0950012-0.1130066l-1.8450012-1.6040039L18.2080517,85.965271z"
			/>
		<path class="st0" d="M26.5342541,93.0091858c0.1999969-0.0709839,0.3809967-0.0499878,0.5529938,0.0810242l0.1660004,0.1170044
			l0.0930023-0.1170044l-1.5439987-1.1329956l-0.0890045,0.1139832l0.1610031,0.1199951
			c0.1660004,0.1240234,0.2569962,0.2650146,0.2699966,0.4179993c0.015007,0.1130066-0.0849991,0.3000183-0.284996,0.5769958
			l-1.3040009,1.7600098c-0.3379974,0.4570007-0.6240005,0.7539978-0.8430023,0.881012
			c-0.2309952,0.1309814-0.5029984,0.1849976-0.8190002,0.1309814c-0.3129959-0.0309753-0.6100006-0.1589966-0.8969955-0.3710022
			c-0.2200012-0.1629944-0.3830032-0.3369751-0.4790039-0.5349731c-0.0889969-0.1880188-0.1299973-0.3790283-0.125-0.5600281
			c0.0070038-0.1759949,0.0800018-0.3849792,0.2099991-0.6329956c0.128006-0.2379761,0.2590027-0.4429932,0.3850021-0.6129761
			l1.3990021-1.8870239c0.1800003-0.2479858,0.3259964-0.3869934,0.4319992-0.4249878
			c0.163002-0.0570068,0.3330002-0.0190125,0.5169983,0.1090088l0.1650009,0.1239929l0.0849991-0.1130066l-1.875-1.3890076
			l-0.0930023,0.1140137l0.1690063,0.1239929c0.1609955,0.1210022,0.2509995,0.2480164,0.2659988,0.3860168
			c0.0089951,0.1380005-0.0810013,0.3399963-0.2809982,0.6089783l-1.2570038,1.7000122
			c-0.3840027,0.519989-0.612999,0.9060059-0.6920013,1.1399841c-0.1019974,0.3580017-0.0889969,0.7080078,0.0330048,1.052002
			c0.1240005,0.3470154,0.4269943,0.697998,0.8989944,1.0450134c0.4420013,0.321991,0.8430023,0.4920044,1.2220001,0.5100098
			c0.3790054,0.0109863,0.7040024-0.0670166,0.9670029-0.2440186c0.2630005-0.178009,0.5599976-0.4830017,0.8819962-0.9140015
			l1.302002-1.7640076C26.3042507,93.1821899,26.4442501,93.0441895,26.5342541,93.0091858"/>
		<path class="st0" d="M33.0439529,97.6165771c0.1499939-0.26297,0.2749939-0.414978,0.3689957-0.4569702
			c0.1539993-0.0740051,0.3280029-0.0460205,0.5250015,0.0669861l0.1669998,0.0960083l0.0719986-0.1240234L32.85495,96.4195862
			l-3.7930012,2.684021l0.4309998-4.6350098l-1.3190002-0.776001l-0.0790024,0.1309814
			c0.1920013,0.1060181,0.3199997,0.2120056,0.3769989,0.3080139c0.0610046,0.0950012,0.0880051,0.1839905,0.0849991,0.2690125
			c-0.010994,0.1169739-0.072998,0.2829895-0.1940002,0.4859924l-1.7829971,3.052002
			c-0.1500015,0.2579956-0.2659988,0.4140015-0.3700027,0.4530029c-0.147995,0.0789795-0.322998,0.0569763-0.5199966-0.0599976
			l-0.1650009-0.098999l-0.0709991,0.1269836l1.6200027,0.9530029l0.0759964-0.131012l-0.1660004-0.0950012
			c-0.1819992-0.1069946-0.2939987-0.2309875-0.3190002-0.3789978c-0.0169983-0.1069946,0.0559998-0.3049927,0.2180023-0.59198
			l1.8199997-3.1159973l-0.4830017,4.9749756l0.112999,0.0640259l4.0870075-2.8720093l-1.8130054,3.1130066
			c-0.1559982,0.2619934-0.2779999,0.4140015-0.3720016,0.4599915c-0.1520004,0.0740051-0.3219986,0.0539856-0.5239944-0.0669861
			l-0.1650009-0.0960083l-0.0740051,0.1319885l1.9830017,1.1539917l0.076004-0.1239929l-0.163002-0.0960083
			c-0.1849976-0.1099854-0.288002-0.2329712-0.3219986-0.3819885c-0.0180054-0.1069946,0.0519943-0.3049927,0.2220001-0.5910034
			L33.0439529,97.6165771z"/>
		<path class="st0" d="M37.176857,98.6605835l0.1809998,0.085022l0.0569992-0.1340027l-2.1030045-0.9559937l-0.0660019,0.1340027
			l0.1740036,0.0779724c0.1179962,0.0540161,0.2180023,0.131012,0.2969971,0.2369995
			c0.0540009,0.0780029,0.0820007,0.1530151,0.0780029,0.2160034c-0.0090027,0.0960083-0.0630035,0.2740173-0.1800003,0.5280151
			l-1.4400024,3.177002c-0.135994,0.2900085-0.2439957,0.4710083-0.3359985,0.5169983
			c-0.1469955,0.0809937-0.3239975,0.0669861-0.5279999-0.0220032l-0.1719971-0.0809937l-0.0620041,0.1380005l2.1100006,0.9559937
			l0.0569992-0.1340027l-0.1759949-0.0849915c-0.1160049-0.0500183-0.2110062-0.1280212-0.2919998-0.2340088
			c-0.0540009-0.0809937-0.0830002-0.1629944-0.0820007-0.2229919c0.0069962-0.0950012,0.0670013-0.2690125,0.1769943-0.5169983
			l1.4440002-3.184021c0.1350021-0.289978,0.2490005-0.4679871,0.3440018-0.5139771
			C36.8068542,98.5656128,36.9798508,98.575592,37.176857,98.6605835"/>
		<path class="st0" d="M43.8203506,100.9202881l-1.7810059-0.598999l-0.0480042,0.1420288l0.177002,0.0539856
			c0.1999969,0.0700073,0.3309937,0.1659851,0.3910065,0.3070068c0.0390015,0.1029968,0.0110016,0.315979-0.0950012,0.6269836
			l-0.9930115,2.95401l-1.8389893-4.8909912l-1.3899994-0.4670105l-0.0500031,0.1380005
			c0.1519928,0.053009,0.2570038,0.0950012,0.326004,0.1480103c0.1309967,0.0999756,0.2249908,0.1889954,0.2849884,0.2659912
			c0.0550079,0.0820007,0.1330109,0.2340088,0.2200012,0.4609985l-1.1989899,3.5549927
			c-0.0960083,0.2870178-0.1809998,0.4640198-0.2639999,0.5280151c-0.1360016,0.098999-0.3130035,0.1099854-0.5289993,0.0390015
			l-0.1829987-0.0610046l-0.0440063,0.1419983l1.7859955,0.6019897l0.0429993-0.1409912l-0.1779938-0.0639954
			c-0.2039948-0.0670166-0.3310089-0.1700134-0.3939972-0.3150024c-0.0410004-0.0960083-0.0090027-0.3009949,0.0979919-0.6159973
			l1.0579987-3.1530151l1.9909973,5.256012l0.1390076,0.0499878l1.4499969-4.3139954
			c0.0910034-0.2909851,0.1849976-0.46698,0.2680054-0.5310059c0.1329956-0.0959778,0.3110046-0.1099854,0.5249939-0.0390015
			l0.1800079,0.0640259L43.8203506,100.9202881z"/>
		<path class="st0" d="M48.5368423,106.2961121l-1.0429993-4.7600098l-0.1340027-0.0209961l-2.6649933,4.0270081
			c-0.2389984,0.3580017-0.4320068,0.5839844-0.5839996,0.6829834c-0.07901,0.0540161-0.2320099,0.0780029-0.4589996,0.0780029
			l-0.0270081,0.1419983l1.6699982,0.3110046l0.0299988-0.1439819c-0.2539978-0.0720215-0.4140015-0.1390076-0.4789886-0.2160034
			c-0.0670013-0.0750122-0.0930023-0.1560059-0.0780029-0.2350159c0.0220032-0.1019897,0.0879974-0.243988,0.2200012-0.4379883
			l0.5069885-0.7720032l2.0650024,0.3720093l0.1820068,0.8279724c0.052002,0.2690125,0.0749969,0.4610291,0.052002,0.5700073
			c-0.0140076,0.0890198-0.0640106,0.1520081-0.1490021,0.2019958c-0.0830078,0.0500183-0.2380066,0.0500183-0.4490051,0.0320129
			l-0.0289917,0.1419983l2.0979919,0.3819885l0.0270081-0.144989c-0.2129974-0.053009-0.3720093-0.144989-0.4730072-0.2690125
			C48.7138443,106.9341125,48.6198349,106.6751099,48.5368423,106.2961121 M45.6758499,104.6810913l1.3149872-1.9759827
			l0.5100098,2.3169861L45.6758499,104.6810913z"/>
		<path class="st0" d="M67.3330612,104.083374c-0.1380005-0.17099-0.3130035-0.3019714-0.5320129-0.3999939
			c-0.2059937-0.0959778-0.5919952-0.2200012-1.1469879-0.368988c-0.6790009-0.177002-1.1220093-0.3399963-1.3270111-0.5020142
			c-0.1470032-0.0999756-0.2369995-0.2349854-0.2749939-0.3939819c-0.0509949-0.2120056-0.0050049-0.4140015,0.1259918-0.6230164
			c0.1380005-0.2019958,0.3400116-0.3329773,0.6070099-0.4039917c0.2409973-0.0570068,0.4869995-0.053009,0.7359924,0.0180054
			c0.2490082,0.0669861,0.4629974,0.1910095,0.6289978,0.367981c0.1700134,0.177002,0.3250122,0.4320068,0.4490051,0.7690125
			l0.1499939-0.0319824l-0.4399872-1.8170166l-0.1440125,0.0320129c0.0010071,0.1269836-0.0109863,0.2149963-0.0429993,0.2689819
			c-0.0319977,0.0500183-0.0849915,0.0809937-0.1499939,0.0960083c-0.0610046,0.0169983-0.1660004,0.0100098-0.3289948-0.0180054
			c-0.3420105-0.0599976-0.6600037-0.0599976-0.9360046,0.0029907c-0.4490051,0.1100159-0.7799988,0.3370056-1.0090027,0.677002
			c-0.2189941,0.3399963-0.2919922,0.7010193-0.197998,1.0840149c0.0529938,0.2160034,0.147995,0.3959961,0.2879944,0.5559998
			c0.1419983,0.1560059,0.3240051,0.2900085,0.553009,0.3850098c0.223999,0.1109924,0.5930023,0.2379761,1.1009979,0.3759766
			c0.5139923,0.1490173,0.8240051,0.2440186,0.947998,0.2969971c0.1759949,0.0780029,0.3130035,0.178009,0.4179993,0.2910156
			c0.102005,0.1130066,0.1730042,0.2369995,0.2019958,0.3639832c0.052002,0.2350159,0.0110016,0.4610291-0.1389923,0.6730042
			c-0.1430054,0.2090149-0.375,0.3619995-0.701004,0.4360046c-0.2789917,0.0710144-0.548996,0.0710144-0.8130035,0.0039978
			c-0.2669983-0.071991-0.4759979-0.1879883-0.6329956-0.3439941c-0.1620026-0.1589966-0.3179932-0.42099-0.477005-0.7789917
			l-0.144989,0.0279846l0.4369965,1.803009l0.1389923-0.0320129c-0.0109863-0.1269836,0-0.2119751,0.0220032-0.2619934
			c0.0319977-0.04599,0.0820007-0.0740051,0.1439972-0.09198c0.0670013-0.0220032,0.2390137-0.0150146,0.503006,0.0069885
			c0.2740021,0.0209961,0.4530029,0.0279846,0.5359955,0.0209961c0.1380005-0.0100098,0.2870026-0.0320129,0.4370117-0.0669861
			c0.4859924-0.1170044,0.848999-0.3610229,1.0909882-0.7190247c0.2389984-0.3649902,0.3090057-0.743988,0.2150116-1.1439819
			C67.5760574,104.4403992,67.4800491,104.2453918,67.3330612,104.083374"/>
		<path class="st0" d="M71.7902451,99.6556091c-0.2529907-0.1549988-0.5330048-0.2290039-0.8300018-0.2260132
			c-0.29599,0-0.6749878,0.085022-1.125,0.2520142l-1.8609924,0.6789856l0.0500031,0.1419983l0.1909943-0.0739746
			c0.1929932-0.0680237,0.3560028-0.0640259,0.4940033,0.0059814c0.0970001,0.0500183,0.2039948,0.2380066,0.3190002,0.5599976
			l1.2039948,3.2690125c0.1029968,0.2929993,0.151001,0.4889832,0.121994,0.5839844
			c-0.0409851,0.1700134-0.1649933,0.2969971-0.3839874,0.3730164l-0.1860046,0.0700073l0.0509949,0.1409912l2.1679993-0.79599
			l-0.04599-0.1380005l-0.1950073,0.0699768c-0.196991,0.0680237-0.3540039,0.0680237-0.4929962-0.0029907
			c-0.0950012-0.053009-0.2030029-0.2449951-0.3200073-0.5589905l-0.5419922-1.4770203
			c0.1719971-0.0209961,0.3349915-0.0539856,0.4830017-0.0889893c0.151001-0.0320129,0.2879944-0.0710144,0.4120026-0.1199951
			c0.4919891-0.1799927,0.8320007-0.4500122,1.0099945-0.8110046c0.1759949-0.3580017,0.1860046-0.743988,0.0350037-1.1589966
			C72.2422409,100.0386047,72.0542526,99.8156128,71.7902451,99.6556091 M71.5352554,101.6185913
			c-0.1200104,0.2690125-0.3070068,0.4530029-0.5660095,0.5410156c-0.072998,0.0320129-0.1620026,0.0610046-0.2700043,0.0820007
			c-0.1039886,0.0279846-0.2289886,0.0499878-0.3709869,0.0740051l-0.7710114-2.1100159
			c0.1829987-0.1170044,0.3339996-0.2019958,0.4640045-0.2519836c0.2109985-0.0740051,0.4080048-0.0960083,0.6080017-0.0639954
			c0.197998,0.0359802,0.3809967,0.125,0.5379944,0.2839966c0.1630096,0.1549988,0.2810059,0.3429871,0.3570099,0.5589905
			C71.6432419,101.055603,71.6452408,101.3486023,71.5352554,101.6185913"/>
		<path class="st0" d="M79.1706467,101.0618896c-0.1609955-0.0419922-0.3950043-0.1940002-0.6849976-0.4489746l-3.6779938-3.197998
			l-0.1260071,0.0519714l0.2639923,4.8380127c0.0210114,0.4219971,0.0020142,0.7229919-0.0569916,0.8930054
			c-0.0370026,0.0920105-0.1419983,0.197998-0.3269958,0.3359985l0.0650024,0.1350098l1.5249939-0.7610168l-0.0639954-0.1279907
			c-0.2440033,0.1019897-0.4110107,0.1380005-0.5090027,0.1199951c-0.1000061-0.0239868-0.1690063-0.0669861-0.2030029-0.144989
			c-0.0480042-0.0920105-0.0740051-0.2520142-0.0850067-0.4820251l-0.048996-0.9279785l1.875-0.9240112l0.6370087,0.5490112
			c0.2039948,0.1809998,0.3349915,0.3259888,0.3919983,0.4320068c0.0370026,0.0739746,0.0370026,0.1519775-0.0039978,0.2409973
			c-0.0420074,0.0959778-0.1590118,0.1919861-0.3450012,0.2980042l0.0639954,0.1269836l1.9140015-0.9419861l-0.0660095-0.1380005
			C79.5086441,101.079895,79.3246536,101.1008911,79.1706467,101.0618896 M75.2236557,101.0228882l-0.128006-2.3759766
			l1.7910004,1.5549927L75.2236557,101.0228882z"/>
		<path class="st0" d="M84.8648453,97.4429932c-0.2109985,0.0039978-0.5270081-0.0740051-0.9360046-0.2340088l-1.7830048-0.6869812
			c0.326004-0.32901,0.5130005-0.65802,0.5590057-0.9840088c0.0509949-0.3190002-0.0169983-0.6210022-0.1999969-0.9039917
			c-0.1699982-0.2590027-0.3959961-0.4290161-0.6750031-0.5130005c-0.2850037-0.0849915-0.5610046-0.0849915-0.8379974-0.007019
			c-0.2680054,0.0820007-0.6470032,0.2800293-1.1320038,0.5910034l-1.6439972,1.0770264l0.0800018,0.1239929l0.1750031-0.1170044
			c0.1689911-0.1060181,0.3259888-0.1419983,0.4799957-0.1029968c0.1100006,0.0279846,0.253006,0.1849976,0.4380035,0.4719849
			l1.9069977,2.9179993c0.1710052,0.2610168,0.2579956,0.4380188,0.2489929,0.5379944
			c0,0.1800232-0.0869904,0.32901-0.2789917,0.4500122l-0.173996,0.1130066l0.0799866,0.1309814l1.9370117-1.2709961
			l-0.0850067-0.1210022l-0.1699982,0.1140137c-0.1699982,0.1130066-0.3289948,0.1440125-0.4799957,0.0979919
			c-0.1100006-0.0239868-0.2539978-0.1829834-0.4390106-0.4639893l-0.8589935-1.3170166
			c0.0399933-0.0169983,0.072998-0.0419922,0.1080017-0.0599976c0.0319977-0.0249939,0.0619965-0.0419922,0.0939941-0.0599976
			c0.072998-0.04599,0.1610107-0.1059875,0.2740021-0.190979l2.9109955,1.118988l1.2100067-0.7929993l-0.0780029-0.1210022
			C85.3268509,97.3720093,85.0848465,97.4429932,84.8648453,97.4429932 M81.923851,96.1009827
			c-0.1010132,0.3250122-0.3660126,0.6370239-0.7950134,0.9200134c-0.0189972,0.0079956-0.0499878,0.0249939-0.0799866,0.0469971
			c-0.029007,0.0169983-0.0680084,0.0419922-0.1070099,0.0660095L79.7088394,95.25
			c0.1940002-0.1830139,0.355011-0.3150024,0.4820099-0.4030151c0.2939911-0.1839905,0.5859985-0.2479858,0.8809967-0.1869812
			c0.2899933,0.0589905,0.5279999,0.2290039,0.7079926,0.5050049C81.9718399,95.4559937,82.0198441,95.7709961,81.923851,96.1009827
			"/>
		<path class="st0" d="M89.1240616,91.2376709c-0.030014-0.1619873,0.0369873-0.3039856,0.1919861-0.4359741l0.0800018-0.0660095
			l-0.0970001-0.1170044l-1.6080017,1.3420105L87.7850571,92.0737c0.1719971-0.1380005,0.3069916-0.2200012,0.3950043-0.2369995
			c0.0929871-0.0210266,0.1839905-0.0180054,0.2649994,0.0249939c0.0929871,0.0350037,0.2149963,0.1589966,0.3899994,0.367981
			l1.0009918,1.2000122c-0.0690002,0.1849976-0.1609955,0.355011-0.2740021,0.5140076
			c-0.1109924,0.1629944-0.2419891,0.3009949-0.3939972,0.4289856c-0.2619934,0.2160034-0.5809937,0.3529968-0.9519958,0.4070129
			c-0.3809967,0.0529785-0.7779999-0.0180054-1.2030029-0.2160034c-0.4210052-0.2019958-0.802002-0.4960022-1.1309967-0.8959961
			c-0.4029999-0.4890137-0.6450043-1.006012-0.7030029-1.5440063c-0.072998-0.6520081,0.1549988-1.1940002,0.6880035-1.6360168
			c0.3880005-0.321991,0.8029938-0.4679871,1.246994-0.4359741c0.3059998,0.0289917,0.654007,0.1559753,1.0370026,0.3899841
			l0.1029968-0.0859985l-1.1929932-1.2219849l-0.1190033,0.0929871c0.0789948,0.1059875,0.1239929,0.1910095,0.1289978,0.2510071
			c0,0.0570068-0.0169983,0.1029968-0.0590057,0.1349792c-0.0339966,0.0350037-0.1319885,0.0780029-0.2809906,0.1270142
			c-0.3000031,0.1100159-0.5200043,0.1990051-0.6620026,0.276001c-0.1430054,0.0759888-0.2899933,0.1809998-0.4420013,0.3049927
			c-0.4149933,0.3480225-0.6999969,0.7330017-0.8560028,1.1690063c-0.1819916,0.5100098-0.2149963,1.0559998-0.0950012,1.6289978
			c0.1080017,0.4779968,0.3110046,0.9030151,0.6119995,1.2669983c0.4179993,0.507019,0.9490051,0.8190002,1.5820007,0.946991
			c0.8390045,0.1660156,1.6710052-0.0820007,2.4650116-0.7479858c0.2809906-0.2380066,0.5119934-0.473999,0.6899872-0.7260132
			c0.1820068-0.2479858,0.3360138-0.5309753,0.4670105-0.8529968l-1.0619965-1.2749939
			C89.2460556,91.5076904,89.1460495,91.3416748,89.1240616,91.2376709"/>
		<path class="st0" d="M92.125145,85.1292114c-0.7400055,0.0109863-1.3509979,0.2729797-1.8309937,0.7819824
			c-0.4840088,0.5209961-0.7210083,1.1190186-0.7279968,1.8099976c-0.0050049,0.7969971,0.3089905,1.4949951,0.9319916,2.07901
			c0.6159973,0.5700073,1.2850037,0.8540039,2.0200043,0.8429871c0.7319946-0.0029907,1.348999-0.2799988,1.8600006-0.8279724
			c0.4989929-0.5320129,0.7289886-1.1730042,0.6900024-1.9230042c-0.0429993-0.7440186-0.3630066-1.4040222-0.9600067-1.9660034
			C93.527153,85.3882141,92.8651505,85.1181946,92.125145,85.1292114 M94.1631546,89.6341858
			c-0.3200073,0.3470154-0.7170105,0.5030212-1.181015,0.4670105c-0.6039886-0.04599-1.2289886-0.3789978-1.8679962-0.9809875
			c-0.6329956-0.5880127-0.9810028-1.1650085-1.0599976-1.7310181c-0.0610046-0.4649963,0.0700073-0.8639832,0.401001-1.2189941
			c0.3560028-0.3789978,0.7599945-0.553009,1.2259979-0.5140076c0.5830078,0.0429993,1.2060089,0.3789978,1.8809967,1.0100098
			c0.6240082,0.5840149,0.9660034,1.1369934,1.0279999,1.6400146C94.6551437,88.8262024,94.5161514,89.262207,94.1631546,89.6341858
			"/>
		<path class="st0" d="M68.6957474,44.4742699c-0.1240082-0.2519836-0.3509979-0.4789734-0.6100006-0.8399963
			c-0.0140076-0.0390015-0.0350037-0.0809937-0.0800018-0.1269836c-0.2330017-0.2940063-0.5250092-0.5240173-0.7299957-0.8359985
			c-0.1320038-0.1029968-0.2540131-0.2090149-0.3610077-0.3120117c-1.7839966-1.5159912-3.9920044-3.4629822-6.6549988-4.151001
			c-0.8809967-0.2089844-1.8090057-0.2940063-2.7949982-0.1900024c-0.9380035-0.2309875-1.9060059-0.3509827-2.7440033-0.3509827
			c-0.7949982-0.0209961-1.5740051,0.0179749-2.3320007,0.1489868c-1.1080017,0.1690063-2.1990051,0.4590149-3.2529907,0.8349915
			c-1.9660034,0.7190247-3.878006,1.6650085-5.7640076,2.4830017c-1.0939941,1.0090027-1.9259949,2.07901-2.6820068,3.1900024
			c-0.3139954,0.4859924-0.6099854,0.9640198-0.9039917,1.4700012c-1.1959991,2.3950195-1.7810059,4.9120178-1.651001,7.6640015
			h-0.1239929c0.5859985,2.9750061,0.7149963,6.20401,1.7879944,8.8280029
			c0.253006,0.5679932,0.5509949,1.1560059,0.901001,1.6830139c0.1699982,0.2479897,0.3600006,0.4809914,0.5509949,0.7079811
			c1.8249969,2.6630249,4.7190094,3.9840088,7.9089966,4.447998c1.0720062,0.1630249,2.1630096,0.2270203,3.253006,0.2050171
			c0.776001,0,1.5749969-0.0419922,2.3289948-0.105011c1.572998-0.1319885,3.1289978-0.4899902,4.5559998-0.8429871
			c0.3350067-0.0429993,0.6690063-0.0820007,0.9830017-0.1520081c3.0240021-0.631012,4.9720001-2.4760132,6.651001-4.6579933
			c0.3730011-0.4850159,0.7319946-1.0090027,1.0850067-1.5370178c0.0449982-0.0390015,0.0670013-0.0809937,0.0869904-0.1199951
			c0.2519989-0.2340088,0.3850098-0.5920105,0.605011-0.8469849c0.7119904-1.0660095,1.5529938-2.2660217,2.2669983-3.2090149
			C72.6477432,53.3062706,71.325737,48.1632957,68.6957474,44.4742699 M68.0947495,54.3792686
			c-0.0160065,0.1030273-0.0350037,0.1910095-0.0850067,0.2720032c-0.2660065,0.7539978-0.727005,1.5340271-0.727005,2.4790039
			c-0.1259918,0.2730103-0.2350006,0.5420227-0.3569946,0.8179932c-1.4420013,3.0210266-3.7940063,5.4330139-6.6450043,6.8640175
			c-1.677002,0.8389893-3.5449982,1.3280029-5.5399933,1.4089966H54.154747
			c-0.5920105,0.1060181-1.1560059,0.1279907-1.7420044,0.0889893c-1.1130066-0.0849915-2.2290039-0.4009705-3.253006-0.8389893
			c-1.7839966-0.7730103-3.3619995-1.9310036-4.5769958-2.9289894c-2.6259918-4.9120178-3.6999969-10.0550232-0.7220001-15.4309998
			c1.1860046-1.9720154,3.0559998-3.756012,5.2839966-4.8470154c1.0230103-0.5029907,2.1160126-0.8619995,3.2470093-1.0310059
			c0.5690002-0.0849915,1.151001-0.1269836,1.7480011-0.1099854h0.5839996
			c1.8880005-0.0039978,3.7749939,0.3359985,5.5369873,1.0100098c2.0350037,0.7749939,3.9060059,1.9859924,5.4600067,3.6429749
			c0.3549957,0.9040222,0.8000031,1.7820129,1.1999969,2.6890259c0.480011,1.1289978,0.8820038,2.3299866,0.9440002,3.6469727
			c0.0640106,0.0640259,0.1100006,0.1240234,0.1450043,0.2090149c0.0690002,0.1069946,0.0850067,0.2089844,0.0850067,0.2730103
			C68.3497391,53.1862755,68.3497391,53.7912865,68.0947495,54.3792686"/>
		<path class="st0" d="M64.987236,49.0097923c-1.0289917-2.0959778-2.8329926-3.4989929-4.720993-4.5289917
			c-0.4869995-0.2720032-0.9880066-0.5029907-1.4710083-0.7359924c-1.322998-0.3510132-2.7480011-0.7090149-4.071991-0.7090149
			c-0.7910004-0.0419922-1.5700073-0.0219727-2.326004,0.1060181c-0.9049988,0.1699829-1.7630005,0.5029907-2.5619965,1.0910034
			c-0.2310028,0.1279907-0.4600067,0.2550049-0.6910095,0.4029846c-2.7039948,1.6610107-4.3789978,4.6400146-5.0509949,7.7449951
			c-1.6559906,2.3730164,0.9620056,4.303009,1.3280029,6.2120056c0.8560028,1.2790222,2.1210022,2.9330139,3.7380066,4.1480103
			c0.9649963,0.7609863,2.0579987,1.3280067,3.2509918,1.5960121c0.7299957,0.1640015,1.5140076,0.2089844,2.3300018,0.1029968
			c2.246994-0.1090088,4.0279999-0.7610207,5.5399933-1.7449989c1.8650055-1.2400208,3.3359985-2.9830017,4.7160034-4.8310242
			c0.1240082-0.7339783,0-1.3209839,0.7340088-2.0359802c-0.003006-1.9120178,0.3509979-3.3580017-0.4860077-4.6600037
			C66.0782394,50.327816,64.8812332,49.972805,64.987236,49.0097923 M61.9092484,56.3157921
			c-0.3950043,0.7940063-0.9680023,1.5690002-1.6360016,2.2640076c-1.2980042,1.3240051-3.0830078,2.2230225-5.0559998,2.1419983
			l-0.4810028-0.098999l-2.3280029-0.42099l-1.0099945-0.1889954c-0.8370056-0.882019-1.6160126-1.7810059-2.2470093-2.7480164
			c-1.0910034-1.6359863-1.7809906-3.4769897-1.7030029-5.7219849c0.4589996-1.0100098,0.9210052-2.2460022,1.6980133-3.2839966
			c0.42099-0.559021,0.9649963-1.0450134,1.6359863-1.4020081c0.4810028-0.3120117,1.0270081-0.5239868,1.6150055-0.6730042
			c0.7299957-0.1699829,1.5350037-0.2330017,2.3280029-0.1520081c1.996994,0,4.1139984,0.6940002,5.5429993,1.6220093
			c0.0390015,0.0169983,0.0599976,0.0350037,0.0849915,0.0350037C62.368248,49.7217979,62.9792404,53.5438194,61.9092484,56.3157921
			"/>
		<path class="st0" d="M59.637352,49.7259789c-1.1950073-1.4279785-3.1049957-1.4279785-4.9080048-1.552002h-0.2319946
			c-0.6670074,0.2940063-1.4069977,0.6549988-2.0980072,1.072998c-1.0099945,0.6130066-1.8909912,1.4070129-2.3269958,2.3980103
			c0.4199982,2.1570129,0.5720062,4.571991,2.3359985,5.7409973c0.2920074,0.1880188,0.6230011,0.3600159,1.0319977,0.4850159
			c0.480011,0.1059875,0.8320007,0.2299805,1.2940063,0.2299805c1.6829987,0.1239929,3.3609924-0.7189941,4.5549927-2.0359802
			c0.3350067-0.6100159,0.7060089-1.2610168,0.9840088-1.9510193c0.3349915-0.8009949,0.5249939-1.6399841,0.3349915-2.4799805
			c-0.0849915-0.2260132-0.2149963-0.4140015-0.3369904-0.605011C60.0183487,50.6459923,59.7223434,50.2919884,59.637352,49.7259789
			 M55.6963577,55.2249718c-0.5860138,0.2520142-0.8380127,0-0.9650116-0.2289734
			c-0.2279968-0.2490234-0.3539886-0.6100159-0.5849915-0.6100159c-0.4860077-0.5839844-0.2350006-1.4199829-0.2350006-2.0119934
			c0.2350006-0.3779907,0.4609985-0.605011,0.8179932-0.605011c0.7320099-0.2330017,1.6809998,0.3510132,2.0380096,1.0660095
			C57.1253433,53.9289818,56.1793442,54.5129967,55.6963577,55.2249718"/>
	</g>
</g>
</svg>
